<svg xmlns="http://www.w3.org/2000/svg" viewBox="0 0 24 24" fill="currentColor" aria-hidden="true">
	<path d="m13.78.37c-2.44,0-4.67.9-6.38,2.39.92-.24,1.88-.39,2.88-.39,6.2,0,11.25,5.05,11.25,11.25,0,1-.14,1.96-.39,2.88,1.48-1.71,2.39-3.94,2.39-6.38C23.53,4.74,19.17.37,13.78.37Z"/>
	<path d="m10.28,3.87C4.9,3.87.53,8.24.53,13.62s4.37,9.75,9.75,9.75,9.75-4.37,9.75-9.75S15.67,3.87,10.28,3.87Zm3,10.5h-2.25v2.25c0,.41-.34.75-.75.75s-.75-.34-.75-.75v-2.25h-2.25c-.41,0-.75-.34-.75-.75s.34-.75.75-.75h2.25v-2.25c0-.41.34-.75.75-.75s.75.34.75.75v2.25h2.25c.41,0,.75.34.75.75s-.34.75-.75.75Z"/>
</svg>
