<svg version="1.1" id="Layer_1" xmlns="http://www.w3.org/2000/svg" x="0" y="0" width="190.061" height="28.762" viewBox="0 0 190.061 28.762" xml:space="preserve"><path d="M37.038 1.018c1.96 0 3.522.618 4.688 1.854 1.079 1.18 1.619 2.685 1.619 4.517v3.878c0 1.762-.614 3.268-1.843 4.518s-2.717 1.875-4.464 1.875h-2.322v10.057h-4.027V1.018h6.349zm2.408 6.434c0-.696-.21-1.257-.628-1.684-.419-.426-.977-.639-1.673-.639h-2.429v8.544h2.429c.639 0 1.183-.228 1.63-.682a2.254 2.254 0 0 0 .671-1.641V7.452zM52.911 1.018c2.244 0 3.892.618 4.943 1.854.923 1.08 1.385 2.586 1.385 4.517v3.878c0 1.89-.717 3.487-2.152 4.794l2.982 11.655h-4.355l-2.441-10.057h-2.684v10.057h-4.027V1.018h6.349zm2.408 6.434c0-1.548-.767-2.322-2.301-2.322h-2.429v8.544h2.429c.639 0 1.183-.228 1.63-.682a2.254 2.254 0 0 0 .671-1.641V7.452zM63.521 27.715V.996h11.463v4.048h-7.436v7.287h5.433v4.049h-5.433v7.287h7.436v4.048H63.521zM91.071 21.068c.028 1.86-.455 3.451-1.449 4.772-.654.895-1.577 1.527-2.77 1.896-.639.198-1.385.298-2.237.298-1.577 0-2.884-.391-3.92-1.172-.867-.639-1.552-1.509-2.056-2.609s-.799-2.362-.884-3.782l3.835-.277c.17 1.557.582 2.685 1.236 3.384.482.528 1.037.778 1.662.75.881-.028 1.584-.462 2.109-1.301.27-.412.405-1.003.405-1.771 0-1.108-.504-2.211-1.513-3.306l-3.58-3.391c-1.335-1.293-2.28-2.452-2.833-3.476a8.03 8.03 0 0 1-.896-3.753c0-2.431.817-4.272 2.45-5.523 1.008-.753 2.259-1.13 3.75-1.13 1.435 0 2.664.319 3.686.959.795.497 1.438 1.192 1.928 2.088.49.895.785 1.925.884 3.089l-3.856.703c-.114-1.094-.426-1.945-.938-2.557-.37-.439-.902-.66-1.598-.66-.739 0-1.299.327-1.683.979-.312.526-.469 1.18-.469 1.961 0 1.222.525 2.464 1.577 3.729.397.483.994 1.052 1.79 1.704.938.781 1.555 1.329 1.854 1.641.994.995 1.761 1.975 2.301 2.94.255.455.461.874.618 1.258.384.951.583 1.804.597 2.557zM107.157 21.068c.029 1.86-.454 3.451-1.448 4.772-.653.895-1.577 1.527-2.771 1.896-.639.198-1.385.298-2.236.298-1.577 0-2.885-.391-3.921-1.172-.866-.639-1.552-1.509-2.056-2.609s-.799-2.362-.884-3.782l3.836-.277c.17 1.557.582 2.685 1.235 3.384.482.528 1.036.778 1.661.75.881-.028 1.584-.462 2.109-1.301.271-.412.406-1.003.406-1.771 0-1.108-.505-2.211-1.514-3.306l-3.58-3.391c-1.334-1.293-2.279-2.452-2.833-3.476-.597-1.152-.895-2.403-.895-3.754 0-2.431.817-4.272 2.451-5.523 1.008-.753 2.258-1.13 3.75-1.13 1.434 0 2.663.319 3.686.959.795.497 1.438 1.192 1.928 2.088.49.895.785 1.925.885 3.089l-3.856.703c-.114-1.094-.427-1.945-.938-2.557-.37-.439-.902-.66-1.599-.66-.738 0-1.299.327-1.683.979-.312.526-.469 1.18-.469 1.961 0 1.222.525 2.464 1.577 3.729.396.483.994 1.052 1.789 1.704.938.781 1.556 1.329 1.854 1.641.994.995 1.762 1.975 2.302 2.94.255.455.462.874.618 1.258.383.952.582 1.805.596 2.558zM110.502 27.715V.996h6.03c1.59 0 3.025.419 4.304 1.257 1.094.711 1.875 1.812 2.344 3.303.256.796.384 1.74.384 2.834 0 1.79-.477 3.225-1.428 4.304a4.043 4.043 0 0 1-1.406 1.044c.895.341 1.654 1.016 2.279 2.024.412.682.718 1.562.916 2.642.1.555.15 1.172.15 1.854 0 1.69-.32 3.125-.959 4.304a5.754 5.754 0 0 1-2.109 2.216c-1.023.625-2.039.938-3.047.938h-7.458zm4.346-15.809h1.684c1.25 0 2.088-.61 2.514-1.832.156-.455.234-1.016.234-1.684 0-1.108-.27-1.946-.81-2.515-.497-.525-1.144-.788-1.938-.788h-1.684v6.819zm0 11.825h1.684c1.363 0 2.308-.703 2.834-2.109.184-.482.276-1.037.276-1.662 0-1.491-.284-2.578-.853-3.26-.511-.625-1.264-.938-2.258-.938h-1.684v7.969zM133.876.677c1.775 0 3.283.625 4.527 1.875 1.242 1.25 1.864 2.756 1.864 4.517v14.574c0 1.775-.626 3.285-1.875 4.527-1.251 1.243-2.757 1.864-4.517 1.864-1.776 0-3.281-.625-4.518-1.875-1.236-1.249-1.854-2.755-1.854-4.517V7.069c0-1.775.625-3.284 1.875-4.527s2.75-1.865 4.498-1.865zm2.193 6.307c0-.64-.223-1.183-.67-1.63a2.223 2.223 0 0 0-1.631-.671c-.639 0-1.186.224-1.641.671s-.682.99-.682 1.63V21.6c0 .64.227 1.183.682 1.63s1.002.672 1.641.672c.64 0 1.183-.225 1.631-.672.447-.447.67-.99.67-1.63V6.984zM150.11.677c1.775 0 3.285.625 4.527 1.875 1.244 1.25 1.865 2.756 1.865 4.517v14.574c0 1.775-.625 3.285-1.875 4.527-1.25 1.243-2.756 1.864-4.518 1.864-1.775 0-3.281-.625-4.517-1.875-1.235-1.249-1.854-2.755-1.854-4.517V7.069c0-1.775.625-3.284 1.875-4.527s2.75-1.865 4.497-1.865zm2.195 6.307c0-.64-.225-1.183-.672-1.63s-.99-.671-1.63-.671-1.187.224-1.641.671-.682.99-.682 1.63V21.6c0 .64.228 1.183.682 1.63s1.001.672 1.641.672 1.183-.225 1.63-.672.672-.99.672-1.63V6.984zM164.065 19.245v8.47h-4.027V.996h4.027v9.524l4.922-9.524h4.293l-5.512 10.898 6.465 15.82h-4.734l-4.229-10.848-1.205 2.379zM188.675 21.068c.029 1.86-.454 3.451-1.448 4.772-.653.895-1.577 1.527-2.771 1.896-.639.198-1.385.298-2.236.298-1.577 0-2.885-.391-3.921-1.172-.866-.639-1.552-1.509-2.056-2.609-.505-1.101-.799-2.362-.885-3.782l3.836-.277c.17 1.557.582 2.685 1.235 3.384.482.528 1.036.778 1.661.75.881-.028 1.584-.462 2.109-1.301.271-.412.406-1.003.406-1.771 0-1.108-.505-2.211-1.514-3.306l-3.58-3.391c-1.334-1.293-2.279-2.452-2.833-3.476a8.037 8.037 0 0 1-.896-3.754c0-2.431.817-4.272 2.451-5.523 1.008-.753 2.258-1.13 3.75-1.13 1.434 0 2.663.319 3.686.959.795.497 1.438 1.192 1.928 2.088.49.895.785 1.925.885 3.089l-3.856.703c-.114-1.094-.427-1.945-.938-2.557-.37-.439-.902-.66-1.599-.66-.738 0-1.299.327-1.683.979-.312.526-.469 1.18-.469 1.961 0 1.222.525 2.464 1.577 3.729.396.483.994 1.052 1.789 1.704.938.781 1.556 1.329 1.854 1.641.994.995 1.762 1.975 2.302 2.94.255.455.462.874.618 1.258.385.952.584 1.805.598 2.558z"/><path fill="#BB2026" d="M28.181 26.5a.868.868 0 0 1-.878.858H.878A.867.867 0 0 1 0 26.5V.659A.87.87 0 0 1 .878-.2h26.424a.87.87 0 0 1 .879.859V26.5z"/><g fill="#FFF"><path d="M9.725 7.253c1.026 0 1.844.316 2.454.949.565.604.848 1.375.848 2.312v1.985c0 .901-.322 1.672-.965 2.312s-1.422.959-2.337.959H8.51v5.148H6.403V7.253h3.322zm1.261 3.293c0-.356-.11-.643-.329-.861s-.511-.327-.875-.327H8.51v4.374h1.271c.334 0 .619-.116.853-.349.234-.233.351-.513.351-.84v-1.997zM14.71 20.918V7.242h3.156c.833 0 1.583.214 2.252.643.572.364.981.927 1.227 1.691.134.407.201.891.201 1.45 0 .916-.25 1.651-.748 2.203a2.12 2.12 0 0 1-.736.535c.468.174.866.52 1.193 1.036.215.349.375.8.479 1.353.052.283.078.6.078.948 0 .866-.167 1.6-.502 2.203a2.96 2.96 0 0 1-1.104 1.134c-.535.32-1.067.48-1.595.48H14.71zm2.275-8.092h.881c.654 0 1.093-.312 1.316-.938.082-.233.123-.52.123-.862 0-.567-.141-.996-.424-1.287-.26-.269-.599-.404-1.015-.404h-.881v3.491zm0 6.053h.881c.713 0 1.208-.36 1.483-1.08.097-.247.145-.531.145-.851 0-.764-.149-1.319-.446-1.669-.268-.32-.662-.479-1.182-.479h-.881v4.079z"/></g></svg>