<?xml version="1.0" encoding="utf-8"?>
<!-- Generator: Adobe Illustrator 16.0.0, SVG Export Plug-In . SVG Version: 6.00 Build 0)  -->
<!DOCTYPE svg PUBLIC "-//W3C//DTD SVG 1.1//EN" "http://www.w3.org/Graphics/SVG/1.1/DTD/svg11.dtd">
<svg version="1.1" id="Layer_1" xmlns="http://www.w3.org/2000/svg" xmlns:xlink="http://www.w3.org/1999/xlink" x="0px" y="0px"
	 width="190.061px" height="28.762px" viewBox="0 0 190.061 28.762" enable-background="new 0 0 190.061 28.762"
	 xml:space="preserve">
<g enable-background="new    ">
	<path d="M37.038,1.018c1.96,0,3.522,0.618,4.688,1.854c1.079,1.18,1.619,2.685,1.619,4.517v3.878c0,1.762-0.614,3.268-1.843,4.518
		c-1.229,1.25-2.717,1.875-4.464,1.875h-2.322v10.057h-4.027V1.018H37.038z M39.446,7.452c0-0.696-0.21-1.257-0.628-1.684
		c-0.419-0.426-0.977-0.639-1.673-0.639h-2.429v8.544h2.429c0.639,0,1.183-0.228,1.63-0.682c0.448-0.455,0.671-1.002,0.671-1.641
		V7.452z"/>
	<path d="M52.911,1.018c2.244,0,3.892,0.618,4.943,1.854c0.923,1.08,1.385,2.586,1.385,4.517v3.878c0,1.89-0.717,3.487-2.152,4.794
		l2.982,11.655h-4.355l-2.441-10.057c-0.114,0-0.234,0-0.362,0h-2.322v10.057h-4.027V1.018H52.911z M55.319,7.452
		c0-1.548-0.767-2.322-2.301-2.322h-2.429v8.544h2.429c0.639,0,1.183-0.228,1.63-0.682c0.448-0.455,0.671-1.002,0.671-1.641V7.452z"
		/>
	<path d="M63.521,27.715V0.996h11.463v4.048h-7.436v7.287h5.433v4.049h-5.433v7.287h7.436v4.048H63.521z"/>
	<path d="M91.071,21.068c0.028,1.86-0.455,3.451-1.449,4.772c-0.654,0.895-1.577,1.527-2.77,1.896
		c-0.639,0.198-1.385,0.298-2.237,0.298c-1.577,0-2.884-0.391-3.92-1.172c-0.867-0.639-1.552-1.509-2.056-2.609
		s-0.799-2.362-0.884-3.782l3.835-0.277c0.17,1.557,0.582,2.685,1.236,3.384c0.482,0.528,1.037,0.778,1.662,0.75
		c0.881-0.028,1.584-0.462,2.109-1.301c0.27-0.412,0.405-1.003,0.405-1.771c0-1.108-0.504-2.211-1.513-3.306
		c-0.795-0.753-1.989-1.883-3.58-3.391c-1.335-1.293-2.28-2.452-2.833-3.476C78.479,9.932,78.18,8.681,78.18,7.33
		c0-2.431,0.817-4.272,2.45-5.523c1.008-0.753,2.259-1.13,3.75-1.13c1.435,0,2.664,0.319,3.686,0.959
		c0.795,0.497,1.438,1.192,1.928,2.088c0.49,0.895,0.785,1.925,0.884,3.089l-3.856,0.703c-0.114-1.094-0.426-1.945-0.938-2.557
		c-0.37-0.439-0.902-0.66-1.598-0.66c-0.739,0-1.299,0.327-1.683,0.979c-0.312,0.526-0.469,1.18-0.469,1.961
		c0,1.222,0.525,2.464,1.577,3.729c0.397,0.483,0.994,1.052,1.79,1.704c0.938,0.781,1.555,1.329,1.854,1.641
		c0.994,0.995,1.761,1.975,2.301,2.94c0.255,0.455,0.461,0.874,0.618,1.258C90.858,19.462,91.057,20.315,91.071,21.068z"/>
	<path d="M107.157,21.068c0.029,1.86-0.454,3.451-1.448,4.772c-0.653,0.895-1.577,1.527-2.771,1.896
		c-0.639,0.198-1.385,0.298-2.236,0.298c-1.577,0-2.885-0.391-3.921-1.172c-0.866-0.639-1.552-1.509-2.056-2.609
		s-0.799-2.362-0.884-3.782l3.836-0.277c0.17,1.557,0.582,2.685,1.235,3.384c0.482,0.528,1.036,0.778,1.661,0.75
		c0.881-0.028,1.584-0.462,2.109-1.301c0.271-0.412,0.406-1.003,0.406-1.771c0-1.108-0.505-2.211-1.514-3.306
		c-0.795-0.753-1.988-1.883-3.58-3.391c-1.334-1.293-2.279-2.452-2.833-3.476c-0.597-1.152-0.895-2.403-0.895-3.754
		c0-2.431,0.817-4.272,2.451-5.523c1.008-0.753,2.258-1.13,3.75-1.13c1.434,0,2.663,0.319,3.686,0.959
		c0.795,0.497,1.438,1.192,1.928,2.088c0.49,0.895,0.785,1.925,0.885,3.089l-3.856,0.703c-0.114-1.094-0.427-1.945-0.938-2.557
		c-0.37-0.439-0.902-0.66-1.599-0.66c-0.738,0-1.299,0.327-1.683,0.979c-0.312,0.526-0.469,1.18-0.469,1.961
		c0,1.222,0.525,2.464,1.577,3.729c0.396,0.483,0.994,1.052,1.789,1.704c0.938,0.781,1.556,1.329,1.854,1.641
		c0.994,0.995,1.762,1.975,2.302,2.94c0.255,0.455,0.462,0.874,0.618,1.258C106.944,19.462,107.143,20.315,107.157,21.068z"/>
	<path d="M110.502,27.715V0.996h6.03c1.59,0,3.025,0.419,4.304,1.257c1.094,0.711,1.875,1.812,2.344,3.303
		c0.256,0.796,0.384,1.74,0.384,2.834c0,1.79-0.477,3.225-1.428,4.304c-0.398,0.455-0.867,0.803-1.406,1.044
		c0.895,0.341,1.654,1.016,2.279,2.024c0.412,0.682,0.718,1.562,0.916,2.642c0.1,0.555,0.15,1.172,0.15,1.854
		c0,1.69-0.32,3.125-0.959,4.304c-0.498,0.924-1.201,1.662-2.109,2.216c-1.023,0.625-2.039,0.938-3.047,0.938H110.502z
		 M114.848,11.906h1.684c1.25,0,2.088-0.61,2.514-1.832c0.156-0.455,0.234-1.016,0.234-1.684c0-1.108-0.27-1.946-0.81-2.515
		c-0.497-0.525-1.144-0.788-1.938-0.788h-1.684V11.906z M114.848,23.731h1.684c1.363,0,2.308-0.703,2.834-2.109
		c0.184-0.482,0.276-1.037,0.276-1.662c0-1.491-0.284-2.578-0.853-3.26c-0.511-0.625-1.264-0.938-2.258-0.938h-1.684V23.731z"/>
	<path d="M133.876,0.677c1.775,0,3.283,0.625,4.527,1.875c1.242,1.25,1.864,2.756,1.864,4.517v14.574
		c0,1.775-0.626,3.285-1.875,4.527c-1.251,1.243-2.757,1.864-4.517,1.864c-1.776,0-3.281-0.625-4.518-1.875
		c-1.236-1.249-1.854-2.755-1.854-4.517V7.069c0-1.775,0.625-3.284,1.875-4.527S132.128,0.677,133.876,0.677z M136.069,6.984
		c0-0.64-0.223-1.183-0.67-1.63c-0.448-0.447-0.991-0.671-1.631-0.671c-0.639,0-1.186,0.224-1.641,0.671s-0.682,0.99-0.682,1.63
		V21.6c0,0.64,0.227,1.183,0.682,1.63s1.002,0.672,1.641,0.672c0.64,0,1.183-0.225,1.631-0.672c0.447-0.447,0.67-0.99,0.67-1.63
		V6.984z"/>
	<path d="M150.11,0.677c1.775,0,3.285,0.625,4.527,1.875c1.244,1.25,1.865,2.756,1.865,4.517v14.574
		c0,1.775-0.625,3.285-1.875,4.527c-1.25,1.243-2.756,1.864-4.518,1.864c-1.775,0-3.281-0.625-4.517-1.875
		c-1.235-1.249-1.854-2.755-1.854-4.517V7.069c0-1.775,0.625-3.284,1.875-4.527S148.363,0.677,150.11,0.677z M152.305,6.984
		c0-0.64-0.225-1.183-0.672-1.63s-0.99-0.671-1.63-0.671s-1.187,0.224-1.641,0.671s-0.682,0.99-0.682,1.63V21.6
		c0,0.64,0.228,1.183,0.682,1.63s1.001,0.672,1.641,0.672s1.183-0.225,1.63-0.672s0.672-0.99,0.672-1.63V6.984z"/>
	<path d="M164.065,19.245v8.47h-4.027V0.996h4.027v9.524l4.922-9.524h4.293l-5.512,10.898l6.465,15.82h-4.734l-4.229-10.848
		L164.065,19.245z"/>
	<path d="M188.675,21.068c0.029,1.86-0.454,3.451-1.448,4.772c-0.653,0.895-1.577,1.527-2.771,1.896
		c-0.639,0.198-1.385,0.298-2.236,0.298c-1.577,0-2.885-0.391-3.921-1.172c-0.866-0.639-1.552-1.509-2.056-2.609
		c-0.505-1.101-0.799-2.362-0.885-3.782l3.836-0.277c0.17,1.557,0.582,2.685,1.235,3.384c0.482,0.528,1.036,0.778,1.661,0.75
		c0.881-0.028,1.584-0.462,2.109-1.301c0.271-0.412,0.406-1.003,0.406-1.771c0-1.108-0.505-2.211-1.514-3.306
		c-0.795-0.753-1.988-1.883-3.58-3.391c-1.334-1.293-2.279-2.452-2.833-3.476c-0.597-1.152-0.896-2.403-0.896-3.754
		c0-2.431,0.817-4.272,2.451-5.523c1.008-0.753,2.258-1.13,3.75-1.13c1.434,0,2.663,0.319,3.686,0.959
		c0.795,0.497,1.438,1.192,1.928,2.088c0.49,0.895,0.785,1.925,0.885,3.089l-3.856,0.703c-0.114-1.094-0.427-1.945-0.938-2.557
		c-0.37-0.439-0.902-0.66-1.599-0.66c-0.738,0-1.299,0.327-1.683,0.979c-0.312,0.526-0.469,1.18-0.469,1.961
		c0,1.222,0.525,2.464,1.577,3.729c0.396,0.483,0.994,1.052,1.789,1.704c0.938,0.781,1.556,1.329,1.854,1.641
		c0.994,0.995,1.762,1.975,2.302,2.94c0.255,0.455,0.462,0.874,0.618,1.258C188.462,19.462,188.661,20.315,188.675,21.068z"/>
</g>
<path fill="#BB2026" d="M28.181,26.5c0,0.475-0.394,0.858-0.878,0.858H0.878C0.394,27.359,0,26.975,0,26.5V0.659
	C0,0.185,0.394-0.2,0.878-0.2h26.424c0.485,0,0.879,0.385,0.879,0.859L28.181,26.5L28.181,26.5z"/>
<g enable-background="new    ">
	<path fill="#FFFFFF" d="M9.725,7.253c1.026,0,1.844,0.316,2.454,0.949c0.565,0.604,0.848,1.375,0.848,2.312v1.985
		c0,0.901-0.322,1.672-0.965,2.312S10.64,15.77,9.725,15.77H8.51v5.148H6.403V7.253H9.725z M10.986,10.546
		c0-0.356-0.11-0.643-0.329-0.861s-0.511-0.327-0.875-0.327H8.51v4.374h1.271c0.334,0,0.619-0.116,0.853-0.349
		c0.234-0.233,0.351-0.513,0.351-0.84V10.546z"/>
	<path fill="#FFFFFF" d="M14.71,20.918V7.242h3.156c0.833,0,1.583,0.214,2.252,0.643c0.572,0.364,0.981,0.927,1.227,1.691
		c0.134,0.407,0.201,0.891,0.201,1.45c0,0.916-0.25,1.651-0.748,2.203c-0.208,0.233-0.454,0.411-0.736,0.535
		c0.468,0.174,0.866,0.52,1.193,1.036c0.215,0.349,0.375,0.8,0.479,1.353c0.052,0.283,0.078,0.6,0.078,0.948
		c0,0.866-0.167,1.6-0.502,2.203c-0.26,0.473-0.628,0.851-1.104,1.134c-0.535,0.32-1.067,0.48-1.595,0.48H14.71z M16.985,12.826
		h0.881c0.654,0,1.093-0.312,1.316-0.938c0.082-0.233,0.123-0.52,0.123-0.862c0-0.567-0.141-0.996-0.424-1.287
		c-0.26-0.269-0.599-0.404-1.015-0.404h-0.881V12.826z M16.985,18.879h0.881c0.713,0,1.208-0.36,1.483-1.08
		c0.097-0.247,0.145-0.531,0.145-0.851c0-0.764-0.149-1.319-0.446-1.669c-0.268-0.32-0.662-0.479-1.182-0.479h-0.881V18.879z"/>
</g>
</svg>
