<?xml version="1.0" encoding="UTF-8" standalone="no"?>
<svg width="128px" height="128px" viewBox="0 0 128 128" version="1.1" xmlns="http://www.w3.org/2000/svg" xmlns:xlink="http://www.w3.org/1999/xlink" xmlns:sketch="http://www.bohemiancoding.com/sketch/ns">
    <!-- Generator: Sketch 3.0.4 (8053) - http://www.bohemiancoding.com/sketch -->
    <title>Untitled 6</title>
    <desc>Created with Sketch.</desc>
    <defs></defs>
    <g id="Page-1" stroke="none" stroke-width="1" fill="none" fill-rule="evenodd" sketch:type="MSPage">
        <g id="PB-logo" sketch:type="MSLayerGroup">
            <rect id="Rectangle-1" fill="#BB2026" sketch:type="MSShapeGroup" x="0" y="0" width="128" height="128"></rect>
            <g id="Group" transform="translate(27.428571, 32.000000)" fill="#FFFFFF" sketch:type="MSShapeGroup">
                <path d="M17.0285714,1.15657143 C21.7188571,1.15657143 25.4582857,2.60114286 28.2468571,5.49485714 C30.8297143,8.256 32.1234286,11.7805714 32.1234286,16.064 L32.1234286,25.1382857 C32.1234286,29.2571429 30.6514286,32.7817143 27.712,35.7074286 C24.7725714,38.6331429 21.2114286,40.0914286 17.0285714,40.0914286 L11.4742857,40.0914286 L11.4742857,63.6251429 L1.84228571,63.6251429 L1.84228571,1.15657143 L17.0285714,1.15657143 L17.0285714,1.15657143 Z M22.7931429,16.2102857 C22.7931429,14.5828571 22.2902857,13.2708571 21.2891429,12.2742857 C20.288,11.2777143 18.9531429,10.7794286 17.2891429,10.7794286 L11.4742857,10.7794286 L11.4742857,30.7748571 L17.2845714,30.7748571 C18.8114286,30.7748571 20.1142857,30.2445714 21.184,29.1794286 C22.2537143,28.1142857 22.7885714,26.8342857 22.7885714,25.3394286 L22.7885714,16.2102857 L22.7931429,16.2102857 Z" id="Shape"></path>
                <path d="M39.8171429,63.6251429 L39.8171429,1.10628571 L54.2445714,1.10628571 C58.0525714,1.10628571 61.4811429,2.08457143 64.5394286,4.04571429 C67.1542857,5.70971429 69.024,8.28342857 70.1485714,11.776 C70.7611429,13.6365714 71.0674286,15.8491429 71.0674286,18.4045714 C71.0674286,22.592 69.9245714,25.952 67.648,28.4754286 C66.6971429,29.5405714 65.5725714,30.3542857 64.2834286,30.9211429 C66.4228571,31.7165714 68.2422857,33.2982857 69.7371429,35.6571429 C70.72,37.2525714 71.4514286,39.3142857 71.9268571,41.8422857 C72.1645714,43.136 72.2834286,44.5851429 72.2834286,46.176 C72.2834286,50.1348571 71.52,53.4902857 69.9885714,56.2468571 C68.8,58.4091429 67.1177143,60.1371429 64.9417143,61.4308571 C62.496,62.8937143 60.064,63.6251429 57.6502857,63.6251429 L39.8171429,63.6251429 L39.8171429,63.6251429 Z M50.2171429,26.6331429 L54.2445714,26.6331429 C57.2342857,26.6331429 59.2411429,25.2068571 60.2605714,22.3451429 C60.6354286,21.28 60.8228571,19.968 60.8228571,18.4045714 C60.8228571,15.8125714 60.1782857,13.8514286 58.8845714,12.5211429 C57.696,11.2914286 56.1462857,10.6742857 54.2445714,10.6742857 L50.2171429,10.6742857 L50.2171429,26.6331429 L50.2171429,26.6331429 Z M50.2171429,54.304 L54.2445714,54.304 C57.504,54.304 59.7668571,52.6582857 61.024,49.3668571 C61.4674286,48.2377143 61.6868571,46.9394286 61.6868571,45.4765714 C61.6868571,41.984 61.0057143,39.4468571 59.648,37.8468571 C58.4228571,36.384 56.6217143,35.6571429 54.2445714,35.6571429 L50.2171429,35.6571429 L50.2171429,54.304 L50.2171429,54.304 Z" id="Shape"></path>
            </g>
        </g>
    </g>
</svg>