<svg xmlns="http://www.w3.org/2000/svg" viewBox="0 0 24 24" stroke-width="1.5" fill="none" stroke="currentColor" aria-hidden="true">
	<g>
		<path class="b" d="m21.45,8.81h-2.75v-.05h.56c.87,0,1.58-.71,1.58-1.58v-2.56c0-.87-.71-1.58-1.58-1.58H2.02s1.52,1.08,1.52,2.86c0,1.88-1.52,2.86-1.52,2.86h13.33v.05H4.22s1.52,1.08,1.52,2.86c0,1.88-1.52,2.86-1.52,2.86h17.23c.87,0,1.58-.71,1.58-1.58v-2.57c0-.87-.71-1.58-1.58-1.58Z"/>
		<path class="b" d="m18.27,14.59H1.04s1.52,1.08,1.52,2.86c0,1.88-1.52,2.86-1.52,2.86h17.23c.87,0,1.58-.71,1.58-1.58v-2.56c0-.87-.71-1.58-1.58-1.58Z"/>
	</g>
	<polygon class="b" points="18.7 11.07 17.02 9.97 15.35 11.07 15.35 6.97 18.7 6.97 18.7 11.07"/>
</svg>
